HIERARCHY
ROOT Hips
{
	OFFSET	0.00	0.00	0.00
	CHANNELS 6 Xposition Yposition Zposition Zrotation Xrotation Yrotation
	JOINT LeftUpLeg
	{
		OFFSET	 0.126116	-0.014019	-0.065224
		CHANNELS 3 Zrotation Xrotation Yrotation
		JOINT LeftLeg
		{
			OFFSET	 0.000000	 0.000000	 0.569914
			CHANNELS 3 Zrotation Xrotation Yrotation
			JOINT LeftFoot
			{
				OFFSET	 0.000000	 0.000000	 0.544423
				CHANNELS 3 Zrotation Xrotation Yrotation
				JOINT LeftToeBase
				{
					OFFSET	 0.000000	 0.000000	 0.207117
					CHANNELS 3 Zrotation Xrotation Yrotation
					End Site
					{
						OFFSET	 0.000000	 0.000000	 0.207117
					}
				}
			}
		}
	}
	JOINT RightUpLeg
	{
		OFFSET	-0.124023	-0.008373	-0.065224
		CHANNELS 3 Zrotation Xrotation Yrotation
		JOINT RightLeg
		{
			OFFSET	 0.000000	 0.000000	 0.570047
			CHANNELS 3 Zrotation Xrotation Yrotation
			JOINT RightFoot
			{
				OFFSET	 0.000000	 0.000000	 0.544354
				CHANNELS 3 Zrotation Xrotation Yrotation
				JOINT RightToeBase
				{
					OFFSET	 0.000000	 0.000000	 0.207540
					CHANNELS 3 Zrotation Xrotation Yrotation
					End Site
					{
						OFFSET	 0.000000	 0.000000	 0.207540
					}
				}
			}
		}
	}
	JOINT Spine
	{
		OFFSET	 0.000184	-0.007763	 0.117403
		CHANNELS 3 Zrotation Xrotation Yrotation
		JOINT Spine1
		{
			OFFSET	 0.000000	 0.000000	 0.137269
			CHANNELS 3 Zrotation Xrotation Yrotation
			JOINT Spine2
			{
				OFFSET	 0.000000	 0.000000	 0.156879
				CHANNELS 3 Zrotation Xrotation Yrotation
				JOINT LeftShoulder
				{
					OFFSET	 0.080501	-0.002496	 0.160144
					CHANNELS 3 Zrotation Xrotation Yrotation
					JOINT LeftArm
					{
						OFFSET	 0.000000	 0.000000	 0.164363
						CHANNELS 3 Zrotation Xrotation Yrotation
						JOINT LeftForeArm
						{
							OFFSET	 0.000000	 0.000000	 0.364576
							CHANNELS 3 Zrotation Xrotation Yrotation
							JOINT LeftHand
							{
								OFFSET	 0.000000	 0.000000	 0.360812
								CHANNELS 3 Zrotation Xrotation Yrotation
								JOINT LeftHandIndex1
								{
									OFFSET	 0.000000	 0.000000	 0.086006
									CHANNELS 3 Zrotation Xrotation Yrotation
									JOINT LeftHandIndex2
									{
										OFFSET	 0.000000	 0.000000	 0.047236
										CHANNELS 3 Zrotation Xrotation Yrotation
										JOINT LeftHandIndex3
										{
											OFFSET	-0.004284	-0.000551	 0.038166
											CHANNELS 3 Zrotation Xrotation Yrotation
											End Site
											{
												OFFSET	-0.004284	-0.000551	 0.038166
											}
										}
									}
								}
							}
						}
					}
				}
				JOINT Neck
				{
					OFFSET	 0.000000	 0.000000	 0.176489
					CHANNELS 3 Zrotation Xrotation Yrotation
					JOINT Head
					{
						OFFSET	 0.000000	-0.001747	 0.077940
						CHANNELS 3 Zrotation Xrotation Yrotation
						End Site
						{
							OFFSET	 0.000000	-0.001747	 0.077940
						}
					}
				}
				JOINT RightShoulder
				{
					OFFSET	-0.080363	 0.000306	 0.159706
					CHANNELS 3 Zrotation Xrotation Yrotation
					JOINT RightArm
					{
						OFFSET	 0.000000	 0.000000	 0.164196
						CHANNELS 3 Zrotation Xrotation Yrotation
						JOINT RightForeArm
						{
							OFFSET	 0.000000	 0.000000	 0.365611
							CHANNELS 3 Zrotation Xrotation Yrotation
							JOINT RightHand
							{
								OFFSET	 0.000000	 0.000000	 0.360648
								CHANNELS 3 Zrotation Xrotation Yrotation
								JOINT RightHandIndex1
								{
									OFFSET	 0.000000	 0.000000	 0.069977
									CHANNELS 3 Zrotation Xrotation Yrotation
									JOINT RightHandIndex2
									{
										OFFSET	 0.000000	 0.000000	 0.052305
										CHANNELS 3 Zrotation Xrotation Yrotation
										JOINT RightHandIndex3
										{
											OFFSET	 0.009002	-0.000782	 0.042196
											CHANNELS 3 Zrotation Xrotation Yrotation
											End Site
											{
												OFFSET	 0.009002	-0.000782	 0.042196
											}
										}
									}
								}
							}
						}
					}
				}
			}
		}
	}
}
MOTION
Frames:    10
Frame Time: 0.03333334
-0.717990	 0.990332	 0.092272	 80.429700	 3.890992	-1.019024	 9.968528	 16.947360	-176.346500	-6.142847	-11.623610	 1.542433	-21.686760	 89.272340	 25.176950	-2.299729	 39.853450	-0.271706	 3.901038	-45.829760	 179.324000	-0.680167	-45.755770	 3.365807	-177.352300	 83.335560	-178.649300	 2.406264	 20.264790	-0.167840	-7.369356	 2.533852	 2.783669	-11.644490	-4.260285	 0.365654	-13.627780	-7.640789	-2.455061	-91.776180	 78.527400	 180.000000	 47.574500	 64.628640	-62.906480	-7.197733	-5.418624	-29.595420	 4.615889	-16.365010	-5.592145	-3.812334	 37.924440	-2.927599	-2.450526	 36.184240	 0.754587	-1.378229	 35.397820	-2.634230	-0.116627	 5.207364	-2.341865	-3.489934	-24.353190	-4.268635	 89.782100	 78.203850	-180.000000	-38.486730	 76.509260	 42.040990	 3.973017	-7.627471	 21.356930	-13.600780	-17.396120	 9.992226	 6.437017	 35.671460	-0.771858	 2.830251	 35.756010	-7.813440	-2.350882	 35.473990	 5.254307
-0.700438	 0.990432	 0.086423	 76.386330	 4.024400	-0.905683	 9.688715	 17.566230	-176.282500	-5.949401	-11.624440	 1.536325	-15.409930	 89.156520	 18.866100	-2.289107	 40.768710	-0.296427	 4.313694	-45.874440	 179.842400	-0.605410	-42.916550	 3.353523	-176.908400	 83.872310	-178.715700	 2.399239	 24.198270	-0.088334	-7.456209	 2.671734	 2.815529	-11.701810	-3.998606	 0.352883	-13.627970	-7.289259	-2.443704	-91.776180	 78.527400	-180.000000	 41.852870	 62.119770	-57.075120	-6.603298	-4.578761	-27.383490	 3.466765	-16.378040	-5.597925	-3.812334	 37.924440	-2.927599	-2.450526	 36.184240	 0.754587	-1.378229	 35.397820	-2.634230	-0.195443	 4.896500	-2.359491	-3.480739	-23.296610	-4.148214	 89.782090	 78.203830	-180.000000	-30.767050	 73.029880	 34.567920	 3.941165	-6.529490	 19.996490	-11.803590	-17.406120	 9.997239	 6.437017	 35.671460	-0.771858	 2.830251	 35.756010	-7.813440	-2.350882	 35.473990	 5.254307
-0.682302	 0.986442	 0.084688	 76.862560	 4.108950	-1.079375	 9.408235	 18.304710	-176.301100	-5.706484	-11.624750	 1.534167	-9.625594	 88.978560	 13.068580	-2.274775	 41.920910	-0.328379	 4.528463	-45.682800	-179.693500	-0.180146	-42.296730	 3.665058	-176.282300	 84.580510	-178.937100	 2.388637	 27.441850	-0.020361	-7.599552	 2.563119	 2.788370	-11.824210	-4.025916	 0.268316	-13.726460	-7.278536	-2.478143	-91.776180	 78.527400	 180.000000	 42.585120	 62.287190	-57.892250	-6.423506	-4.566822	-26.551940	 3.644732	-16.400950	-5.609621	-3.812334	 37.924440	-2.927599	-2.450526	 36.184240	 0.754587	-1.378229	 35.397820	-2.634230	-0.280260	 5.037573	-2.302177	-3.554602	-23.525120	-4.200774	 89.782090	 78.203890	-180.000000	-30.346190	 73.201420	 33.819960	 3.892292	-6.460342	 19.645060	-11.872630	-17.421630	 10.009260	 6.437017	 35.671460	-0.771858	 2.830251	 35.756010	-7.813440	-2.350882	 35.473990	 5.254307
-0.661687	 0.981510	 0.085016	 77.268810	 4.196970	-1.218785	 9.142484	 19.144820	-176.416200	-5.411340	-11.624270	 1.537794	-4.292526	 88.665140	 7.755461	-2.257942	 43.169560	-0.364115	 4.789095	-45.478600	-179.277100	 0.126420	-42.073390	 3.959388	-175.724900	 85.385770	-179.172700	 2.378636	 29.663340	 0.027818	-7.757318	 2.479841	 2.711363	-11.927430	-4.065594	 0.177240	-13.769240	-7.251781	-2.512581	-91.776180	 78.527420	-180.000000	 43.306280	 62.617570	-58.566140	-6.321486	-4.538264	-25.588480	 3.827064	-16.433810	-5.628513	-3.812334	 37.924440	-2.927599	-2.450526	 36.184240	 0.754587	-1.378229	 35.397820	-2.634230	-0.366056	 5.177978	-2.298362	-3.622742	-23.667080	-4.189977	 89.782120	 78.203870	 180.000000	-29.776600	 73.445910	 32.956810	 3.933570	-6.391536	 19.298430	-11.934420	-17.445240	 10.028400	 6.437017	 35.671460	-0.771858	 2.830251	 35.756010	-7.813440	-2.350882	 35.473990	 5.254307
-0.638738	 0.975711	 0.083984	 77.664470	 4.308702	-1.329094	 8.900928	 20.063440	-176.626100	-5.066087	-11.622940	 1.548070	-0.087261	 88.120700	 3.612429	-2.235605	 44.681640	-0.409112	 5.051353	-45.121700	-178.902500	 0.452537	-42.260190	 4.319750	-175.546000	 86.230740	-179.046100	 2.375826	 30.206690	 0.039826	-7.946784	 2.355055	 2.585156	-12.032740	-4.125646	 0.055778	-13.809160	-7.226075	-2.548433	-91.776180	 78.527400	-180.000000	 44.027310	 63.101310	-59.159890	-6.319042	-4.492351	-24.536300	 4.003712	-16.478430	-5.655095	-3.812334	 37.924440	-2.927599	-2.450526	 36.184240	 0.754587	-1.378229	 35.397820	-2.634230	-0.457255	 5.193534	-2.272243	-3.685269	-23.667180	-4.140580	 89.782090	 78.203830	-180.000000	-29.109960	 73.732190	 32.004620	 4.033534	-6.322984	 18.972660	-11.975530	-17.476480	 10.055880	 6.437017	 35.671460	-0.771858	 2.830251	 35.756010	-7.813440	-2.350882	 35.473990	 5.254307
-0.615947	 0.969762	 0.082465	 78.010930	 4.425609	-1.420410	 8.703657	 20.956380	-176.892900	-4.707342	-11.620880	 1.563691	 2.428433	 87.332440	 1.199099	-2.207875	 46.372610	-0.461894	 5.267450	-44.668100	-178.578700	 0.911523	-42.760220	 4.794832	-175.482800	 87.158820	-178.757400	 2.379550	 29.479400	 0.023772	-8.151730	 2.215529	 2.433445	-12.128360	-4.206761	-0.067568	-13.828440	-7.217616	-2.588238	-91.776180	 78.527380	-180.000000	 44.620900	 63.692540	-59.518030	-6.417226	-4.436075	-23.532990	 4.153272	-16.530530	-5.686343	-3.812334	 37.924440	-2.927599	-2.450526	 36.184240	 0.754587	-1.378229	 35.397820	-2.634230	-0.542739	 5.114437	-2.234060	-3.733011	-23.558960	-4.048612	 89.782090	 78.203830	-180.000000	-28.435140	 74.011300	 31.060760	 4.162615	-6.259389	 18.701760	-11.983050	-17.511500	 10.089480	 6.437017	 35.671460	-0.771858	 2.830251	 35.756010	-7.813440	-2.350882	 35.473990	 5.254307
-0.594299	 0.963924	 0.081929	 78.295650	 4.509431	-1.478947	 8.554091	 21.783160	-177.199600	-4.352763	-11.618310	 1.582858	 3.783108	 86.323680	-0.020850	-2.177221	 48.047170	-0.517059	 5.323624	-44.179510	-178.443100	 1.762248	-43.422350	 5.500550	-174.242300	 88.245540	-179.453000	 2.381425	 29.092220	 0.015291	-8.361136	 2.089475	 2.237000	-12.206270	-4.302692	-0.177269	-13.811920	-7.234999	-2.633851	-91.776180	 78.527400	 180.000000	 45.018100	 64.357020	-59.549160	-6.593979	-4.376009	-22.632640	 4.272165	-16.585960	-5.720432	-3.812334	 37.924440	-2.927599	-2.450526	 36.184240	 0.754587	-1.378229	 35.397820	-2.634230	-0.619336	 5.004729	-2.188874	-3.769490	-23.399420	-3.939036	 89.782120	 78.203870	 180.000000	-27.763120	 74.264930	 30.132020	 4.308880	-6.200418	 18.486640	-11.955980	-17.547650	 10.127090	 6.437017	 35.671460	-0.771858	 2.830251	 35.756010	-7.813440	-2.350882	 35.473990	 5.254307
-0.569959	 0.957157	 0.082063	 78.545560	 4.504148	-1.481493	 8.456806	 22.683880	-177.635900	-3.939276	-11.614350	 1.611969	 4.605402	 84.840750	-0.631075	-2.138770	 49.918640	-0.582589	 5.064731	-43.630420	-178.602700	 3.364492	-44.296080	 6.631915	-175.295300	 89.811290	-177.555200	 2.377397	 29.905990	 0.033166	-8.594063	 1.969918	 1.924893	-12.260780	-4.425025	-0.300499	-13.765440	-7.291451	-2.679370	-91.776180	 78.527400	-180.000000	 45.274750	 65.201570	-59.271840	-6.883244	-4.304108	-21.693920	 4.379252	-16.653800	-5.763831	-3.812334	 37.924440	-2.927599	-2.450526	 36.184240	 0.754587	-1.378229	 35.397820	-2.634230	-0.704554	 4.888598	-2.128646	-3.812666	-23.192430	-3.805632	 89.782120	 78.203930	 180.000000	-26.950640	 74.530770	 29.015260	 4.497841	-6.133343	 18.288490	-11.881900	-17.590920	 10.176180	 6.437017	 35.671460	-0.771858	 2.830251	 35.756010	-7.813440	-2.350882	 35.473990	 5.254307
-0.544291	 0.950017	 0.082963	 78.720820	 4.450215	-1.408645	 8.470685	 23.602470	-178.165200	-3.534571	-11.608630	 1.653024	 5.003726	 82.843410	-0.721128	-2.098830	 51.645720	-0.647227	 4.581347	-42.991470	-178.935500	 5.190480	-45.200020	 7.847754	 6.986280	 88.481990	 1.013809	 2.371497	 30.992870	 0.057388	-8.797984	 1.837945	 1.510060	-12.261590	-4.556815	-0.438636	-13.725940	-7.387704	-2.694447	-91.776180	 78.527400	-180.000000	 45.323510	 66.176410	-58.665570	-7.297329	-4.223134	-20.806770	 4.448938	-16.730210	-5.815322	-3.812334	 37.924440	-2.927599	-2.450526	 36.184240	 0.754587	-1.378229	 35.397820	-2.634230	-0.798034	 4.820152	-2.055406	-3.854832	-23.025910	-3.636062	 89.782090	 78.203830	-180.000000	-26.016070	 74.780750	 27.730830	 4.721720	-6.059886	 18.126040	-11.750060	-17.638880	 10.235580	 6.437017	 35.671460	-0.771858	 2.830251	 35.756010	-7.813440	-2.350882	 35.473990	 5.254307
-0.518072	 0.942596	 0.084494	 78.818430	 4.403735	-1.334049	 8.550493	 24.519610	-178.662700	-3.242906	-11.603690	 1.687650	 5.047982	 80.278660	-0.439244	-2.068397	 52.840210	-0.694599	 4.094895	-42.343950	-179.300000	 6.324441	-46.075530	 8.579575	 5.505483	 87.264120	 2.889724	 2.370634	 31.143550	 0.060767	-8.931416	 1.639790	 1.124837	-12.194900	-4.679634	-0.583947	-13.722200	-7.475846	-2.654154	-91.776180	 78.527400	 180.000000	 45.120070	 67.242440	-57.732400	-7.883949	-4.121416	-20.025430	 4.420451	-16.812510	-5.874823	-3.812334	 37.924440	-2.927599	-2.450526	 36.184240	 0.754587	-1.378229	 35.397820	-2.634230	-0.886485	 4.784868	-1.974569	-3.882724	-22.900770	-3.449192	 89.782120	 78.203870	 180.000000	-25.200010	 75.001950	 26.612600	 4.947950	-5.988120	 18.002940	-11.581830	-17.691380	 10.303590	 6.437017	 35.671460	-0.771858	 2.830251	 35.756010	-7.813440	-2.350882	 35.473990	 5.254307
